<mxfile host="app.diagrams.net" agent="Mozilla/5.0 (X11; Linux x86_64) AppleWebKit/537.36 (KHTML, like Gecko) Chrome/135.0.0.0 Safari/537.36" version="26.2.13">
  <diagram name="PÃ¡gina-1" id="vIK9TJv9WnzsTBESfTkg">
    <mxGraphModel dx="1362" dy="793" grid="1" gridSize="10" guides="1" tooltips="1" connect="1" arrows="1" fold="1" page="1" pageScale="1" pageWidth="827" pageHeight="1169" math="0" shadow="0">
      <root>
        <mxCell id="0" />
        <mxCell id="1" parent="0" />
        <mxCell id="CEDjRxz97SUGFm6sH99L-3" style="edgeStyle=orthogonalEdgeStyle;rounded=0;orthogonalLoop=1;jettySize=auto;html=1;exitX=0.5;exitY=1;exitDx=0;exitDy=0;entryX=0.5;entryY=0;entryDx=0;entryDy=0;" edge="1" parent="1" source="CEDjRxz97SUGFm6sH99L-1" target="CEDjRxz97SUGFm6sH99L-2">
          <mxGeometry relative="1" as="geometry" />
        </mxCell>
        <mxCell id="CEDjRxz97SUGFm6sH99L-1" value="Inicio" style="ellipse;whiteSpace=wrap;html=1;" vertex="1" parent="1">
          <mxGeometry x="354" y="80" width="120" height="80" as="geometry" />
        </mxCell>
        <mxCell id="CEDjRxz97SUGFm6sH99L-5" style="edgeStyle=orthogonalEdgeStyle;rounded=0;orthogonalLoop=1;jettySize=auto;html=1;exitX=0.5;exitY=1;exitDx=0;exitDy=0;entryX=0.5;entryY=0;entryDx=0;entryDy=0;" edge="1" parent="1" source="CEDjRxz97SUGFm6sH99L-2" target="CEDjRxz97SUGFm6sH99L-4">
          <mxGeometry relative="1" as="geometry" />
        </mxCell>
        <mxCell id="CEDjRxz97SUGFm6sH99L-2" value="Solicitar edad" style="shape=parallelogram;perimeter=parallelogramPerimeter;whiteSpace=wrap;html=1;fixedSize=1;" vertex="1" parent="1">
          <mxGeometry x="354" y="210" width="120" height="60" as="geometry" />
        </mxCell>
        <mxCell id="CEDjRxz97SUGFm6sH99L-8" style="edgeStyle=orthogonalEdgeStyle;rounded=0;orthogonalLoop=1;jettySize=auto;html=1;exitX=1;exitY=0.5;exitDx=0;exitDy=0;entryX=0.75;entryY=0;entryDx=0;entryDy=0;" edge="1" parent="1" source="CEDjRxz97SUGFm6sH99L-4" target="CEDjRxz97SUGFm6sH99L-7">
          <mxGeometry relative="1" as="geometry">
            <mxPoint x="570" y="440" as="targetPoint" />
          </mxGeometry>
        </mxCell>
        <mxCell id="CEDjRxz97SUGFm6sH99L-9" style="edgeStyle=orthogonalEdgeStyle;rounded=0;orthogonalLoop=1;jettySize=auto;html=1;exitX=0;exitY=0.5;exitDx=0;exitDy=0;entryX=0.5;entryY=0;entryDx=0;entryDy=0;" edge="1" parent="1" source="CEDjRxz97SUGFm6sH99L-4" target="CEDjRxz97SUGFm6sH99L-6">
          <mxGeometry relative="1" as="geometry" />
        </mxCell>
        <mxCell id="CEDjRxz97SUGFm6sH99L-4" value="edad &amp;gt;=18" style="rhombus;whiteSpace=wrap;html=1;" vertex="1" parent="1">
          <mxGeometry x="374" y="310" width="80" height="80" as="geometry" />
        </mxCell>
        <mxCell id="CEDjRxz97SUGFm6sH99L-12" style="edgeStyle=orthogonalEdgeStyle;rounded=0;orthogonalLoop=1;jettySize=auto;html=1;exitX=0.5;exitY=1;exitDx=0;exitDy=0;entryX=0;entryY=0.5;entryDx=0;entryDy=0;" edge="1" parent="1" source="CEDjRxz97SUGFm6sH99L-6" target="CEDjRxz97SUGFm6sH99L-10">
          <mxGeometry relative="1" as="geometry" />
        </mxCell>
        <mxCell id="CEDjRxz97SUGFm6sH99L-6" value="Eres menor de edad" style="shape=parallelogram;perimeter=parallelogramPerimeter;whiteSpace=wrap;html=1;fixedSize=1;" vertex="1" parent="1">
          <mxGeometry x="210" y="430" width="144" height="60" as="geometry" />
        </mxCell>
        <mxCell id="CEDjRxz97SUGFm6sH99L-11" style="edgeStyle=orthogonalEdgeStyle;rounded=0;orthogonalLoop=1;jettySize=auto;html=1;exitX=0.75;exitY=1;exitDx=0;exitDy=0;entryX=1;entryY=0.5;entryDx=0;entryDy=0;" edge="1" parent="1" source="CEDjRxz97SUGFm6sH99L-7" target="CEDjRxz97SUGFm6sH99L-10">
          <mxGeometry relative="1" as="geometry" />
        </mxCell>
        <mxCell id="CEDjRxz97SUGFm6sH99L-7" value="Eres mayor de edad" style="shape=parallelogram;perimeter=parallelogramPerimeter;whiteSpace=wrap;html=1;fixedSize=1;" vertex="1" parent="1">
          <mxGeometry x="474" y="430" width="146" height="60" as="geometry" />
        </mxCell>
        <mxCell id="CEDjRxz97SUGFm6sH99L-10" value="Fin" style="ellipse;whiteSpace=wrap;html=1;" vertex="1" parent="1">
          <mxGeometry x="354" y="570" width="120" height="80" as="geometry" />
        </mxCell>
      </root>
    </mxGraphModel>
  </diagram>
</mxfile>
